<mxfile host="app.diagrams.net" agent="Mozilla/5.0 (Windows NT 10.0; Win64; x64) AppleWebKit/537.36 (KHTML, like Gecko) Chrome/136.0.0.0 Safari/537.36 Edg/136.0.0.0" version="27.0.2">
  <diagram name="Page-1" id="7340mGMNs5xD894TJSfL">
    <mxGraphModel dx="979" dy="371" grid="1" gridSize="10" guides="1" tooltips="1" connect="1" arrows="1" fold="1" page="1" pageScale="1" pageWidth="850" pageHeight="1100" math="0" shadow="0">
      <root>
        <mxCell id="0" />
        <mxCell id="1" parent="0" />
        <mxCell id="Omaqz9L-98QQXD41gnPy-1" value="A" style="ellipse;whiteSpace=wrap;html=1;aspect=fixed;fillColor=#d5e8d4;strokeColor=#82b366;" vertex="1" parent="1">
          <mxGeometry x="200" y="40" width="40" height="40" as="geometry" />
        </mxCell>
        <mxCell id="Omaqz9L-98QQXD41gnPy-2" value="C" style="ellipse;whiteSpace=wrap;html=1;aspect=fixed;fillColor=#f5f5f5;fontColor=#333333;strokeColor=#666666;" vertex="1" parent="1">
          <mxGeometry x="240" y="120" width="40" height="40" as="geometry" />
        </mxCell>
        <mxCell id="Omaqz9L-98QQXD41gnPy-3" value="B" style="ellipse;whiteSpace=wrap;html=1;aspect=fixed;fillColor=#f5f5f5;fontColor=#333333;strokeColor=#666666;" vertex="1" parent="1">
          <mxGeometry x="160" y="120" width="40" height="40" as="geometry" />
        </mxCell>
        <mxCell id="Omaqz9L-98QQXD41gnPy-4" value="E" style="ellipse;whiteSpace=wrap;html=1;aspect=fixed;fillColor=#f5f5f5;fontColor=#333333;strokeColor=#666666;" vertex="1" parent="1">
          <mxGeometry x="200" y="200" width="40" height="40" as="geometry" />
        </mxCell>
        <mxCell id="Omaqz9L-98QQXD41gnPy-5" value="D" style="ellipse;whiteSpace=wrap;html=1;aspect=fixed;fillColor=#f5f5f5;strokeColor=#666666;fontColor=#333333;" vertex="1" parent="1">
          <mxGeometry x="120" y="200" width="40" height="40" as="geometry" />
        </mxCell>
        <mxCell id="Omaqz9L-98QQXD41gnPy-9" value="" style="endArrow=classic;html=1;rounded=0;" edge="1" parent="1" source="Omaqz9L-98QQXD41gnPy-1" target="Omaqz9L-98QQXD41gnPy-3">
          <mxGeometry width="50" height="50" relative="1" as="geometry">
            <mxPoint x="70" y="60" as="sourcePoint" />
            <mxPoint x="120" y="10" as="targetPoint" />
          </mxGeometry>
        </mxCell>
        <mxCell id="Omaqz9L-98QQXD41gnPy-13" value="0.5" style="edgeLabel;html=1;align=center;verticalAlign=middle;resizable=0;points=[];" vertex="1" connectable="0" parent="Omaqz9L-98QQXD41gnPy-9">
          <mxGeometry x="-0.1818" y="4" relative="1" as="geometry">
            <mxPoint as="offset" />
          </mxGeometry>
        </mxCell>
        <mxCell id="Omaqz9L-98QQXD41gnPy-10" value="0.3" style="endArrow=classic;html=1;rounded=0;" edge="1" parent="1" source="Omaqz9L-98QQXD41gnPy-1" target="Omaqz9L-98QQXD41gnPy-2">
          <mxGeometry width="50" height="50" relative="1" as="geometry">
            <mxPoint x="216" y="84" as="sourcePoint" />
            <mxPoint x="190" y="130" as="targetPoint" />
          </mxGeometry>
        </mxCell>
        <mxCell id="Omaqz9L-98QQXD41gnPy-11" value="0.4" style="endArrow=classic;html=1;rounded=0;" edge="1" parent="1" source="Omaqz9L-98QQXD41gnPy-3" target="Omaqz9L-98QQXD41gnPy-5">
          <mxGeometry width="50" height="50" relative="1" as="geometry">
            <mxPoint x="216" y="84" as="sourcePoint" />
            <mxPoint x="190" y="130" as="targetPoint" />
          </mxGeometry>
        </mxCell>
        <mxCell id="Omaqz9L-98QQXD41gnPy-12" value="0.8" style="endArrow=classic;html=1;rounded=0;" edge="1" parent="1" source="Omaqz9L-98QQXD41gnPy-3" target="Omaqz9L-98QQXD41gnPy-4">
          <mxGeometry width="50" height="50" relative="1" as="geometry">
            <mxPoint x="176" y="164" as="sourcePoint" />
            <mxPoint x="150" y="210" as="targetPoint" />
          </mxGeometry>
        </mxCell>
        <mxCell id="Omaqz9L-98QQXD41gnPy-14" value="" style="curved=1;endArrow=classic;html=1;rounded=0;dashed=1;dashPattern=8 8;" edge="1" parent="1" source="Omaqz9L-98QQXD41gnPy-1" target="Omaqz9L-98QQXD41gnPy-19">
          <mxGeometry width="50" height="50" relative="1" as="geometry">
            <mxPoint x="270" y="520" as="sourcePoint" />
            <mxPoint x="320" y="470" as="targetPoint" />
            <Array as="points">
              <mxPoint x="120" y="60" />
              <mxPoint x="60" y="180" />
            </Array>
          </mxGeometry>
        </mxCell>
        <mxCell id="Omaqz9L-98QQXD41gnPy-15" value="0.4 * 0.5 * 1.0 = 0.2" style="edgeLabel;html=1;align=center;verticalAlign=middle;resizable=0;points=[];" vertex="1" connectable="0" parent="Omaqz9L-98QQXD41gnPy-14">
          <mxGeometry x="0.1807" y="3" relative="1" as="geometry">
            <mxPoint as="offset" />
          </mxGeometry>
        </mxCell>
        <mxCell id="Omaqz9L-98QQXD41gnPy-19" value="F" style="ellipse;whiteSpace=wrap;html=1;aspect=fixed;fillColor=#d5e8d4;strokeColor=#82b366;" vertex="1" parent="1">
          <mxGeometry x="80" y="280" width="40" height="40" as="geometry" />
        </mxCell>
        <mxCell id="Omaqz9L-98QQXD41gnPy-22" value="G" style="ellipse;whiteSpace=wrap;html=1;aspect=fixed;fillColor=#f5f5f5;fontColor=#333333;strokeColor=#666666;" vertex="1" parent="1">
          <mxGeometry x="160" y="280" width="40" height="40" as="geometry" />
        </mxCell>
        <mxCell id="Omaqz9L-98QQXD41gnPy-23" value="1.0" style="endArrow=classic;html=1;rounded=0;" edge="1" parent="1" source="Omaqz9L-98QQXD41gnPy-5" target="Omaqz9L-98QQXD41gnPy-19">
          <mxGeometry width="50" height="50" relative="1" as="geometry">
            <mxPoint x="150" y="260" as="sourcePoint" />
            <mxPoint x="150" y="210" as="targetPoint" />
          </mxGeometry>
        </mxCell>
        <mxCell id="Omaqz9L-98QQXD41gnPy-24" value="0.1" style="endArrow=classic;html=1;rounded=0;" edge="1" parent="1" source="Omaqz9L-98QQXD41gnPy-5" target="Omaqz9L-98QQXD41gnPy-22">
          <mxGeometry width="50" height="50" relative="1" as="geometry">
            <mxPoint x="141" y="248" as="sourcePoint" />
            <mxPoint x="119" y="292" as="targetPoint" />
          </mxGeometry>
        </mxCell>
      </root>
    </mxGraphModel>
  </diagram>
</mxfile>
